<svg aria-hidden="true" style="position:absolute;width:0;height:0;overflow:hidden" xmlns="http://www.w3.org/2000/svg">
  <defs>
    <symbol id="icon-burger-menu" viewBox="0 0 32 32">
      <path stroke-linejoin="round" stroke-linecap="round" stroke-width="2.286" d="M28 13.333H4M28 8H4M28 18.667H4M28 24H4"/>
    </symbol>
    <symbol id="icon-checkbox" viewBox="0 0 32 32">
      <path d="M10.667 0h10.667c5.891 0 10.667 4.776 10.667 10.667v10.667c0 5.891-4.776 10.667-10.667 10.667H10.667C4.776 32.001 0 27.225 0 21.334V10.667C0 4.776 4.776 0 10.667 0z"/>
      <path fill="none" stroke="#fff" style="stroke:var(--color1, #fff)" stroke-width="3.574" d="m8.889 17.778 5.333 3.556L24 10.667"/>
    </symbol>
    <symbol id="icon-arrow-left" viewBox="0 0 32 32">
      <path d="M2.163 15.998c0-0.947 0.768-1.714 1.714-1.714l24.244 0.003c0.947 0 1.714 0.768 1.714 1.714s-0.768 1.714-1.715 1.714l-24.244-0.003c-0.947-0-1.714-0.768-1.714-1.714z"></path>
      <path d="M17.21 29.334c-0.67 0.669-1.755 0.669-2.424-0l-12.121-12.123c-0.669-0.67-0.669-1.755 0-2.424l12.123-12.12c0.67-0.669 1.755-0.669 2.424 0s0.669 1.755-0 2.424l-10.911 10.908 10.908 10.911c0.669 0.669 0.669 1.755-0 2.424z"></path>
    </symbol>
    <symbol id="icon-arrow-up-right" viewBox="0 0 32 32">
      <path d="M23.779 8.221c0.532 0.532 0.532 1.395 0 1.928l-13.63 13.63c-0.532 0.532-1.395 0.532-1.928 0s-0.532-1.395 0-1.928l13.63-13.63c0.532-0.532 1.395-0.532 1.928 0z"></path>
      <path d="M7.822 9.185c0-0.753 0.61-1.363 1.363-1.363h13.63c0.753 0 1.363 0.61 1.363 1.363v13.63c0 0.753-0.61 1.363-1.363 1.363s-1.363-0.61-1.363-1.363v-12.267h-12.267c-0.753 0-1.363-0.61-1.363-1.363z"></path>
    </symbol>
    <symbol id="icon-chevron-down" viewBox="0 0 32 32">
      <path d="M7.493 10.492c-0.91 0.325-1.319 1.298-0.926 2.201 0.082 0.188 0.996 1.131 4.302 4.437 4.667 4.668 4.4 4.437 5.131 4.437s0.464 0.231 5.131-4.437c4.668-4.667 4.437-4.4 4.437-5.131 0-0.487-0.123-0.795-0.448-1.12-0.259-0.279-0.628-0.453-1.037-0.453-0.020 0-0.039 0-0.059 0.001l0.003-0c-0.741-0.004-0.505-0.203-4.468 3.751l-3.559 3.552-3.534-3.531c-2.91-2.908-3.579-3.55-3.796-3.646-0.199-0.087-0.43-0.137-0.674-0.137-0.18 0-0.353 0.028-0.515 0.079l0.012-0.003z"></path>
    </symbol>
    <symbol id="icon-chevron-up" viewBox="0 0 32 32">
      <path stroke-linejoin="round" stroke-linecap="round" stroke-width="3.2" d="m8 20 8-8 8 8"/>
    </symbol>
    <symbol id="icon-close" viewBox="0 0 32 32">
      <path stroke-linejoin="round" stroke-linecap="round" stroke-width="3" d="M24 8 8 24M8 8l16 16"/>
    </symbol>
    <symbol id="icon-minus" viewBox="0 0 32 32">
      <path stroke-linejoin="round" stroke-linecap="round" stroke-width="2" d="M6.667 16h18.667"/>
    </symbol>
    <symbol id="icon-plus" viewBox="0 0 32 32">
      <path stroke-linejoin="round" stroke-linecap="round" stroke-width="2" d="M16 6.667v18.667M6.667 16h18.667"/>
    </symbol>
    <symbol id="icon-quotes" viewBox="0 0 39 32">
      <path d="M0 32V21.294c0-4 .704-7.686 2.113-11.059S5.909 3.451 9.275 0l6.105 4.824c-1.957 1.961-3.444 3.804-4.462 5.529s-1.683 3.49-1.996 5.294h7.514V32H-.002zm22.896 0V21.294c0-4 .704-7.686 2.113-11.059S28.805 3.451 32.171 0l6.105 4.824c-1.957 1.961-3.444 3.804-4.462 5.529s-1.683 3.49-1.996 5.294h7.514V32H22.894z"/>
    </symbol>
    <symbol id="icon-eye-off" viewBox="0 0 32 32">
      <path stroke-linejoin="round" stroke-linecap="round" stroke-width="2.88" d="M23.92 23.92A13.43 13.43 0 0 1 16 26.667C6.667 26.667 1.333 16 1.333 16A24.605 24.605 0 0 1 8.08 8.08m5.12-2.426a12.161 12.161 0 0 1 2.8-.32c9.333 0 14.667 10.667 14.667 10.667a24.646 24.646 0 0 1-2.88 4.253m-8.961-1.427a4.01 4.01 0 0 1-2.855 1.273 3.996 3.996 0 0 1-3.779-2.501 3.995 3.995 0 0 1 .983-4.424M1.333 1.334l29.333 29.333"/>
    </symbol>
    <symbol id="icon-eye" viewBox="0 0 32 32">
      <path stroke-linejoin="round" stroke-linecap="round" stroke-width="2.88" d="M1.333 16S6.666 5.333 16 5.333 30.667 16 30.667 16 25.334 26.667 16 26.667C6.667 26.667 1.333 16 1.333 16z"/>
      <path stroke-linejoin="round" stroke-linecap="round" stroke-width="2.88" d="M16 20a4 4 0 1 0 0-8 4 4 0 0 0 0 8z"/>
    </symbol>
    <symbol id="icon-heart" viewBox="0 0 32 32">
      <path
        d="M8.507 2.725c-4.377 0.463-7.758 4.135-7.758 8.597 0 1.947 0.601 3.7 1.826 5.332 0.476 0.635 12.524 12.676 12.839 12.832 0.173 0.077 0.374 0.123 0.587 0.123s0.414-0.045 0.596-0.126c0.315-0.156 12.361-12.196 12.839-12.832 1.223-1.628 1.826-3.388 1.826-5.332 0-4.152-2.922-7.621-6.821-8.464-0.538-0.108-1.156-0.17-1.789-0.17-0.626 0-1.238 0.060-1.83 0.176-1.543 0.313-3.054 1.129-4.3 2.318l-0.512 0.491-0.521-0.492c-0.273-0.26-0.565-0.511-0.868-0.748-1.427-1.077-3.23-1.725-5.185-1.725-0.315 0-0.627 0.017-0.933 0.050z"
        fill="currentColor"
      />
    </symbol>
    <symbol id="icon-trash" viewBox="0 0 32 32">
      <path stroke-linejoin="round" stroke-linecap="round" stroke-width="2.667" d="M12 4h8M4 8h24m-2.667 0-.935 14.026c-.14 2.104-.21 3.156-.665 3.954a4.007 4.007 0 0 1-1.731 1.62c-.826.4-1.881.4-3.99.4h-4.025c-2.109 0-3.163 0-3.99-.4a4.001 4.001 0 0 1-1.731-1.62c-.455-.798-.525-1.85-.665-3.954L6.666 8"/>
    </symbol>
    <symbol id="icon-camera" viewBox="0 0 33 32">
<path d="M16.667 23.333c1.667 0 3.084-0.583 4.251-1.749s1.749-2.584 1.749-4.251-0.583-3.084-1.749-4.251c-1.167-1.166-2.584-1.749-4.251-1.749s-3.084 0.583-4.251 1.749c-1.166 1.167-1.749 2.584-1.749 4.251s0.583 3.084 1.749 4.251c1.167 1.166 2.584 1.749 4.251 1.749zM6 28c-0.733 0-1.361-0.261-1.883-0.783s-0.784-1.151-0.784-1.884v-16c0-0.733 0.261-1.361 0.784-1.883s1.149-0.784 1.883-0.784h4.2l2.467-2.667h8l2.467 2.667h4.2c0.733 0 1.361 0.261 1.884 0.784s0.783 1.149 0.783 1.883v16c0 0.733-0.261 1.361-0.783 1.884s-1.151 0.783-1.884 0.783h-21.333z"></path>
</symbol>
    <symbol id="icon-facebook" viewBox="0 0 32 32">
      <path d="M19.52 4.64h.96v3.6h-1.2c-.48 0-.96 0-1.2.24s-.24.48-.24 1.04v1.28h2.64v3.04h-2.64v13.2h-4.08V13.76H11.6v-3.04h2.16V9.68c0-1.76.24-3.04.72-3.6.72-1.04 2.16-1.52 4.32-1.52.24.08.48.08.72.08z"/>
    </symbol>
    <symbol id="icon-instagram" viewBox="0 0 32 32">
      <path d="M28.718 10.756a9.264 9.264 0 0 0-.596-3.145 6.547 6.547 0 0 0-3.743-3.737 9.42 9.42 0 0 0-3.108-.596c-1.368-.061-1.801-.078-5.273-.078s-3.916 0-5.274.078a9.418 9.418 0 0 0-3.106.596 6.541 6.541 0 0 0-3.743 3.737 9.288 9.288 0 0 0-.596 3.101c-.061 1.367-.08 1.8-.08 5.265s0 3.909.08 5.265a9.335 9.335 0 0 0 .596 3.104 6.55 6.55 0 0 0 3.744 3.736c.989.386 2.04.604 3.106.639 1.369.061 1.803.08 5.274.08s3.916 0 5.274-.08a9.362 9.362 0 0 0 3.108-.595 6.555 6.555 0 0 0 3.743-3.737 9.35 9.35 0 0 0 .596-3.104c.061-1.365.08-1.798.08-5.265-.003-3.466-.003-3.906-.082-5.264zM15.99 22.531c-3.631 0-6.572-2.936-6.572-6.561s2.941-6.561 6.572-6.561c3.628 0 6.572 2.936 6.572 6.561s-2.944 6.561-6.572 6.561zm6.834-11.835a1.53 1.53 0 1 1 0-3.06 1.53 1.53 0 1 1 0 3.06z"/>
      <path d="M15.992 19.976a4.004 4.004 0 1 0 0-8.009 4.004 4.004 0 0 0 0 8.009z"/>
    </symbol>
    <symbol id="icon-youtube" viewBox="0 0 32 32">
      <path d="M30.112 9.356s-.288-2.08-1.152-2.971c-1.056-1.189-2.304-1.189-2.88-1.288C22.048 4.8 16 4.8 16 4.8s-6.048 0-10.08.297c-.576.099-1.824.099-2.88 1.288-.864.891-1.152 2.971-1.152 2.971S1.6 11.733 1.6 14.11v2.179c0 2.377.288 4.853.288 4.853s.288 2.08 1.152 2.971c1.056 1.189 2.496 1.189 3.168 1.288 2.304.099 9.792.198 9.792.198s6.048 0 10.08-.297c.576-.099 1.824-.099 2.88-1.288.864-.891 1.152-2.971 1.152-2.971s.288-2.377.288-4.754V14.11c0-2.377-.288-4.754-.288-4.754zm-17.088 9.707v-8.32l7.776 4.16-7.776 4.16z"/>
    </symbol>
<symbol id="icon-capture" viewBox="0 0 33 32">
<path stroke-linejoin="round" stroke-linecap="round" stroke-miterlimit="4" stroke-width="0.5" d="M28.441 11.429v-4.581c0-0.807-0.32-1.58-0.889-2.152s-1.342-0.893-2.149-0.896l-4.581-0.014M28.441 20.571v4.571c0 0.808-0.321 1.583-0.893 2.155s-1.347 0.893-2.155 0.893h-4.571M11.679 3.787l-4.581 0.015c-0.807 0.002-1.58 0.325-2.149 0.896s-0.889 1.345-0.889 2.152v4.579M11.679 28.19h-4.571c-0.808 0-1.583-0.321-2.155-0.893s-0.893-1.347-0.893-2.155v-4.571"></path>
</symbol>
  </defs>
</svg>